<svg width="16" height="15" viewBox="0 0 16 15" fill="none" xmlns="http://www.w3.org/2000/svg">
<path d="M5.11266 4.84788H5.11855M5.11266 2.48926H8.06094C8.36284 2.48926 8.66475 2.60424 8.89471 2.8348L13.0223 6.96239C13.2434 7.18355 13.3676 7.48346 13.3676 7.79617C13.3676 8.10888 13.2434 8.40879 13.0223 8.62994L8.89471 12.7575C8.67356 12.9786 8.37365 13.1028 8.06094 13.1028C7.74823 13.1028 7.44832 12.9786 7.22716 12.7575L3.09957 8.62994C2.98989 8.52057 2.90291 8.39062 2.84361 8.24753C2.78431 8.10445 2.75387 7.95105 2.75403 7.79617V4.84788C2.75403 4.22234 3.00253 3.62241 3.44485 3.18008C3.88718 2.73776 4.48711 2.48926 5.11266 2.48926Z" stroke="#B3B3B3" stroke-width="1.5" stroke-linecap="round" stroke-linejoin="round"/>
</svg>
